<?xml version="1.0" encoding="UTF-8" standalone="no"?>
<!-- Created with Inkscape (http://www.inkscape.org/) -->

<svg
   width="511.96893"
   height="512"
   viewBox="0 0 135.45845 135.46667"
   version="1.1"
   id="svg5040"
   xml:space="preserve"
   xmlns="http://www.w3.org/2000/svg"
   xmlns:svg="http://www.w3.org/2000/svg"><defs
     id="defs5037" /><g
     id="layer1"
     style="display:inline"><rect
       style="display:inline;fill:#009689;fill-opacity:1;stroke:#00c8b9;stroke-width:4.16758;stroke-linecap:round;stroke-linejoin:round;stroke-miterlimit:5.7;stroke-dasharray:none;stroke-opacity:1;paint-order:fill markers stroke"
       id="rect28227"
       width="131.29086"
       height="131.29909"
       x="2.0837901"
       y="2.0837901"
       ry="11.959741" /><g
       style="fill:none;fill-opacity:1;stroke:#ffffff;stroke-width:1.87545;stroke-linecap:round;stroke-linejoin:round;stroke-dasharray:none;stroke-opacity:1"
       id="g37617"
       transform="matrix(4.6743037,0,0,4.6743037,11.641672,11.641706)"><path
         d="M 11.65,22 H 18 a 2,2 0 0 0 2,-2 V 8 A 2.4,2.4 0 0 0 19.294,6.294 L 15.706,2.706 A 2.4,2.4 0 0 0 14,2 H 6 A 2,2 0 0 0 4,4 v 10.35"
         id="path37599"
         style="display:inline;fill:none;fill-opacity:1;stroke:#ffffff;stroke-width:1.87545;stroke-dasharray:none;stroke-opacity:1" /><path
         d="m 14,2 v 5 a 1,1 0 0 0 1,1 h 5"
         id="path37601"
         style="display:inline;fill:none;fill-opacity:1;stroke:#ffffff;stroke-width:1.87545;stroke-dasharray:none;stroke-opacity:1" /><path
         d="m 8,20 v -7 l 3,1.474"
         id="path37603"
         style="display:inline;fill:none;fill-opacity:1;stroke:#ffffff;stroke-width:1.87545;stroke-dasharray:none;stroke-opacity:1" /><circle
         cx="6"
         cy="20"
         r="2"
         id="circle37605"
         style="display:inline;fill:none;fill-opacity:1;stroke:#ffffff;stroke-width:1.87545;stroke-dasharray:none;stroke-opacity:1" /></g></g></svg>
